<?xml version="1.0" encoding="utf-8"?>
<!-- Generator: Adobe Illustrator 24.1.2, SVG Export Plug-In . SVG Version: 6.00 Build 0)  -->
<svg version="1.1" id="Layer_1" xmlns="http://www.w3.org/2000/svg" xmlns:xlink="http://www.w3.org/1999/xlink" x="0px" y="0px"
	 viewBox="0 0 51.3 56" style="enable-background:new 0 0 51.3 56;" xml:space="preserve">
<style type="text/css">
	.st0{display:none;}
	.st1{fill:url(#SVGID_1_);}
	.st2{clip-path:url(#SVGID_3_);}
	.st3{fill:url(#SVGID_4_);}
	.st4{clip-path:url(#SVGID_6_);fill:url(#SVGID_7_);}
	.st5{clip-path:url(#SVGID_9_);fill:url(#SVGID_10_);}
	.st6{clip-path:url(#SVGID_12_);fill:url(#SVGID_13_);}
	.st7{clip-path:url(#SVGID_15_);fill:url(#SVGID_16_);}
	.st8{opacity:0.85;}
	.st9{clip-path:url(#SVGID_18_);fill:url(#SVGID_19_);}
	.st10{clip-path:url(#SVGID_21_);fill:url(#SVGID_22_);}
	.st11{fill:url(#SVGID_23_);}
	.st12{opacity:0.36;fill:url(#SVGID_24_);enable-background:new    ;}
	.st13{opacity:0.36;fill:url(#SVGID_25_);enable-background:new    ;}
	.st14{fill:url(#SVGID_26_);}
	.st15{fill:url(#SVGID_27_);}
	.st16{opacity:0.36;fill:url(#SVGID_28_);enable-background:new    ;}
	.st17{opacity:0.68;fill:#A5DDE8;enable-background:new    ;}
</style>
<g id="Layer_2_1_" class="st0">
	<image style="display:inline;overflow:visible;enable-background:new    ;" width="334" height="56" xlink:href="B6BF4982.png" >
	</image>
</g>
<g>
	
		<radialGradient id="SVGID_1_" cx="25.265" cy="26.61" r="20.5575" gradientTransform="matrix(1 0 0 -1 0 58)" gradientUnits="userSpaceOnUse">
		<stop  offset="0" style="stop-color:#FFFFFF"/>
		<stop  offset="0.5" style="stop-color:#6CBBCB"/>
		<stop  offset="1" style="stop-color:#00A7BC"/>
	</radialGradient>
	<path class="st1" d="M45.8,10.8c0,9.6-6.6,17.7-15.6,20V52h-9.9V30.8c-8.9-2.2-15.6-10.3-15.6-20h9.9c0,5.9,4.8,10.6,10.6,10.6
		s10.6-4.8,10.6-10.6H45.8z"/>
	<g>
		<g>
			<defs>
				<path id="SVGID_2_" d="M45.8,10.8c0,9.6-6.6,17.7-15.6,20V52h-9.9V30.8c-8.9-2.2-15.6-10.3-15.6-20h9.9
					c0,5.9,4.8,10.6,10.6,10.6s10.6-4.8,10.6-10.6H45.8z"/>
			</defs>
			<clipPath id="SVGID_3_">
				<use xlink:href="#SVGID_2_"  style="overflow:visible;"/>
			</clipPath>
			<g class="st2">
				
					<image style="overflow:visible;enable-background:new    ;" width="396" height="396" xlink:href="B6BF4986.png"  transform="matrix(0.2364 0 0 0.2364 -21.56 -18.28)">
				</image>
			</g>
		</g>
	</g>
	
		<linearGradient id="SVGID_4_" gradientUnits="userSpaceOnUse" x1="20.3" y1="20.59" x2="30.22" y2="20.59" gradientTransform="matrix(1 0 0 -1 0 58)">
		<stop  offset="0" style="stop-color:#1EACBF"/>
		<stop  offset="0.2263" style="stop-color:#6DC2D0"/>
		<stop  offset="0.486" style="stop-color:#9AD9E5"/>
		<stop  offset="0.852" style="stop-color:#6CBBCB"/>
		<stop  offset="1" style="stop-color:#00A7BC"/>
	</linearGradient>
	<rect x="20.3" y="22.9" class="st3" width="9.9" height="29.1"/>
	<g>
		<g>
			<defs>
				<path id="SVGID_5_" d="M45.8,10.8c0,9.6-6.6,17.7-15.6,20V52h-9.9V30.8c-8.9-2.2-15.6-10.3-15.6-20h9.9
					c0,5.9,4.8,10.6,10.6,10.6s10.6-4.8,10.6-10.6H45.8z"/>
			</defs>
			<clipPath id="SVGID_6_">
				<use xlink:href="#SVGID_5_"  style="overflow:visible;"/>
			</clipPath>
			
				<radialGradient id="SVGID_7_" cx="25.26" cy="47.17" r="20.56" gradientTransform="matrix(1 0 0 -1 0 58)" gradientUnits="userSpaceOnUse">
				<stop  offset="0.3855" style="stop-color:#1EACBF"/>
				<stop  offset="0.5615" style="stop-color:#6DC2D0"/>
				<stop  offset="0.7374" style="stop-color:#9AD9E5"/>
				<stop  offset="0.852" style="stop-color:#6CBBCB"/>
				<stop  offset="1" style="stop-color:#00A7BC"/>
			</radialGradient>
			<path class="st4" d="M25.3,0.2c5.9,0,10.6,4.8,10.6,10.6s-4.8,10.6-10.6,10.6s-10.6-4.8-10.6-10.6S19.4,0.2,25.3,0.2 M25.3-9.7
				C13.9-9.7,4.7-0.5,4.7,10.8s9.2,20.6,20.6,20.6s20.6-9.2,20.6-20.6S36.6-9.7,25.3-9.7L25.3-9.7z"/>
		</g>
		<g>
			<defs>
				<path id="SVGID_8_" d="M45.8,10.8c0,9.6-6.6,17.7-15.6,20V52h-9.9V30.8c-8.9-2.2-15.6-10.3-15.6-20h9.9
					c0,5.9,4.8,10.6,10.6,10.6s10.6-4.8,10.6-10.6H45.8z"/>
			</defs>
			<clipPath id="SVGID_9_">
				<use xlink:href="#SVGID_8_"  style="overflow:visible;"/>
			</clipPath>
			
				<radialGradient id="SVGID_10_" cx="25.26" cy="47.17" r="20.56" gradientTransform="matrix(1 0 0 -1 0 58)" gradientUnits="userSpaceOnUse">
				<stop  offset="0.3855" style="stop-color:#1EACBF"/>
				<stop  offset="0.5615" style="stop-color:#6DC2D0"/>
				<stop  offset="0.7374" style="stop-color:#9AD9E5"/>
				<stop  offset="0.852" style="stop-color:#6CBBCB"/>
				<stop  offset="1" style="stop-color:#00A7BC"/>
			</radialGradient>
			<path class="st5" d="M25.3,0.2c5.9,0,10.6,4.8,10.6,10.6s-4.8,10.6-10.6,10.6s-10.6-4.8-10.6-10.6S19.4,0.2,25.3,0.2 M25.3-9.7
				C13.9-9.7,4.7-0.5,4.7,10.8s9.2,20.6,20.6,20.6s20.6-9.2,20.6-20.6S36.6-9.7,25.3-9.7L25.3-9.7z"/>
		</g>
		<g>
			<defs>
				<path id="SVGID_11_" d="M45.8,10.8c0,9.6-6.6,17.7-15.6,20V52h-9.9V30.8c-8.9-2.2-15.6-10.3-15.6-20h9.9
					c0,5.9,4.8,10.6,10.6,10.6s10.6-4.8,10.6-10.6H45.8z"/>
			</defs>
			<clipPath id="SVGID_12_">
				<use xlink:href="#SVGID_11_"  style="overflow:visible;"/>
			</clipPath>
			
				<radialGradient id="SVGID_13_" cx="25.26" cy="47.17" r="20.56" gradientTransform="matrix(1 0 0 -1 0 58)" gradientUnits="userSpaceOnUse">
				<stop  offset="0.3855" style="stop-color:#1EACBF"/>
				<stop  offset="0.5615" style="stop-color:#6DC2D0"/>
				<stop  offset="0.7374" style="stop-color:#9AD9E5"/>
				<stop  offset="0.852" style="stop-color:#6CBBCB"/>
				<stop  offset="1" style="stop-color:#00A7BC"/>
			</radialGradient>
			<path class="st6" d="M25.3,0.2c5.9,0,10.6,4.8,10.6,10.6s-4.8,10.6-10.6,10.6s-10.6-4.8-10.6-10.6S19.4,0.2,25.3,0.2 M25.3-9.7
				C13.9-9.7,4.7-0.5,4.7,10.8s9.2,20.6,20.6,20.6s20.6-9.2,20.6-20.6S36.6-9.7,25.3-9.7L25.3-9.7z"/>
		</g>
	</g>
	<g>
		<g>
			<defs>
				<path id="SVGID_14_" d="M45.8,10.8c0,9.6-6.6,17.7-15.6,20V52c0,0.7-1.4,2.1-5,2.1c-4.3,0-5-1.4-5-2.1c0-0.7,0-14.1,0-21.2
					c-9-2.2-15.6-10.3-15.6-20h9.9c0,5.9,4.8,10.6,10.6,10.6s10.6-4.8,10.6-10.6H45.8z"/>
			</defs>
			<clipPath id="SVGID_15_">
				<use xlink:href="#SVGID_14_"  style="overflow:visible;"/>
			</clipPath>
			
				<linearGradient id="SVGID_16_" gradientUnits="userSpaceOnUse" x1="9.67" y1="25.2" x2="41.56" y2="25.2" gradientTransform="matrix(1 0 0 -1 0 58)">
				<stop  offset="0" style="stop-color:#1EACBF;stop-opacity:0"/>
				<stop  offset="9.450000e-02" style="stop-color:#2DAEC1;stop-opacity:0.2624"/>
				<stop  offset="0.2161" style="stop-color:#4AB5C6;stop-opacity:0.5996"/>
				<stop  offset="0.3519" style="stop-color:#6BC1CF;stop-opacity:0.9765"/>
				<stop  offset="0.3603" style="stop-color:#6DC2D0"/>
				<stop  offset="0.49" style="stop-color:#9AD9E5"/>
				<stop  offset="0.6453" style="stop-color:#6CBBCB"/>
				<stop  offset="0.6473" style="stop-color:#6CBBCB;stop-opacity:0.9943"/>
				<stop  offset="0.7221" style="stop-color:#4EB2C4;stop-opacity:0.7798"/>
				<stop  offset="0.8014" style="stop-color:#31ABBF;stop-opacity:0.5529"/>
				<stop  offset="0.8879" style="stop-color:#10A8BD;stop-opacity:0.3051"/>
				<stop  offset="0.9944" style="stop-color:#00A7BC;stop-opacity:0"/>
			</linearGradient>
			<path class="st7" d="M9.7,10.8c0,0,0.7,15.6,15.6,15.6s15.6-15.6,15.6-15.6l0.7,16.3c0,0-8.5,3.5-9.9,4.3
				c-1.4,0.7-0.7,21.3-0.7,21.3c-1.4,1.4-3.8,2.1-5.7,2.1c-1.9,0-5-1.4-5.7-2.1c-3.5-13.5,2.2-19.8-0.7-21.3
				c-2.8-1.4-7.8-3.5-7.8-3.5L9.7,10.8z"/>
		</g>
	</g>
	<g class="st8">
		<g>
			<defs>
				<path id="SVGID_17_" d="M45.8,10.8c0,9.6-6.6,17.7-15.6,20V52c-1.6,0-3.2,2.1-4.9,2.1c-1.7,0-3.4-2.1-5.1-2.1
					c0-7.1,0-14.1,0-21.2c-8.9-2.2-15.6-10.3-15.6-20h9.9c0,5.9,4.8,10.6,10.6,10.6s10.6-4.8,10.6-10.6H45.8z"/>
			</defs>
			<clipPath id="SVGID_18_">
				<use xlink:href="#SVGID_17_"  style="overflow:visible;"/>
			</clipPath>
			
				<radialGradient id="SVGID_19_" cx="25.26" cy="47.17" r="20.56" gradientTransform="matrix(1 0 0 -1 0 58)" gradientUnits="userSpaceOnUse">
				<stop  offset="0.3855" style="stop-color:#1EACBF;stop-opacity:0"/>
				<stop  offset="0.5615" style="stop-color:#6DC2D0;stop-opacity:0"/>
				<stop  offset="0.7374" style="stop-color:#9AD9E5"/>
				<stop  offset="0.852" style="stop-color:#6CBBCB;stop-opacity:0"/>
				<stop  offset="1" style="stop-color:#00A7BC;stop-opacity:0"/>
			</radialGradient>
			<path class="st9" d="M25.3,0.2c5.9,0,10.6,4.8,10.6,10.6s-4.8,10.6-10.6,10.6s-10.6-4.8-10.6-10.6S19.4,0.2,25.3,0.2 M25.3-9.7
				C13.9-9.7,4.7-0.5,4.7,10.8s9.2,20.6,20.6,20.6s20.6-9.2,20.6-20.6S36.6-9.7,25.3-9.7L25.3-9.7z"/>
		</g>
		<g>
			<defs>
				<path id="SVGID_20_" d="M45.8,10.8c0,9.6-6.6,17.7-15.6,20V52c-1.6,0-3.2,2.1-4.9,2.1c-1.7,0-3.4-2.1-5.1-2.1
					c0-7.1,0-14.1,0-21.2c-8.9-2.2-15.6-10.3-15.6-20h9.9c0,5.9,4.8,10.6,10.6,10.6s10.6-4.8,10.6-10.6H45.8z"/>
			</defs>
			<clipPath id="SVGID_21_">
				<use xlink:href="#SVGID_20_"  style="overflow:visible;"/>
			</clipPath>
			
				<radialGradient id="SVGID_22_" cx="25.26" cy="47.17" r="20.56" gradientTransform="matrix(1 0 0 -1 0 58)" gradientUnits="userSpaceOnUse">
				<stop  offset="0.3855" style="stop-color:#1EACBF;stop-opacity:0"/>
				<stop  offset="0.6173" style="stop-color:#6DC2D0;stop-opacity:0"/>
				<stop  offset="0.743" style="stop-color:#9AD9E5"/>
				<stop  offset="0.9134" style="stop-color:#6CBBCB;stop-opacity:0.5"/>
				<stop  offset="1" style="stop-color:#00A7BC;stop-opacity:0"/>
			</radialGradient>
			<path class="st10" d="M25.3,0.2c5.9,0,10.6,4.8,10.6,10.6s-4.8,10.6-10.6,10.6s-10.6-4.8-10.6-10.6S19.4,0.2,25.3,0.2 M25.3-9.7
				C13.9-9.7,4.7-0.5,4.7,10.8s9.2,20.6,20.6,20.6s20.6-9.2,20.6-20.6S36.6-9.7,25.3-9.7L25.3-9.7z"/>
		</g>
	</g>
</g>
<radialGradient id="SVGID_23_" cx="25.26" cy="48.42" r="6.38" gradientTransform="matrix(1 0 0 -1 0 58)" gradientUnits="userSpaceOnUse">
	<stop  offset="9.500000e-02" style="stop-color:#A5DDE8"/>
	<stop  offset="0.26" style="stop-color:#9DD6E3"/>
	<stop  offset="0.5172" style="stop-color:#87C9D8"/>
	<stop  offset="0.757" style="stop-color:#6CBBCB"/>
	<stop  offset="1" style="stop-color:#00A7BC"/>
</radialGradient>
<circle class="st11" cx="25.3" cy="9.6" r="6.4"/>
<radialGradient id="SVGID_24_" cx="25.26" cy="48.42" r="6.38" gradientTransform="matrix(1 0 0 -1 0 58)" gradientUnits="userSpaceOnUse">
	<stop  offset="0.2011" style="stop-color:#A5DDE8"/>
	<stop  offset="0.7514" style="stop-color:#6CBBCB"/>
	<stop  offset="1" style="stop-color:#00A7BC"/>
</radialGradient>
<circle class="st12" cx="25.3" cy="9.6" r="6.4"/>
<radialGradient id="SVGID_25_" cx="25.265" cy="25.545" r="21.0968" gradientTransform="matrix(1 0 0 -1 0 58)" gradientUnits="userSpaceOnUse">
	<stop  offset="0.2011" style="stop-color:#A5DDE8"/>
	<stop  offset="0.6564" style="stop-color:#6CBBCB"/>
	<stop  offset="1" style="stop-color:#00A7BC"/>
</radialGradient>
<path class="st13" d="M45.8,10.8c0,9.6-6.6,17.7-15.6,20c0,0,0,20.5,0,21.2c0,0.7-1.4,2.1-5,2.1c-2.8,0-5-0.7-5-2.1s0-21.2,0-21.2
	c-9-2.2-15.6-10.3-15.6-20h9.9c0,5.9,4.8,10.6,10.6,10.6s10.6-4.8,10.6-10.6H45.8z"/>
<radialGradient id="SVGID_26_" cx="37.9119" cy="-729.2569" r="6.3778" gradientTransform="matrix(0.7778 0 0 -0.3402 11.3721 -237.2232)" gradientUnits="userSpaceOnUse">
	<stop  offset="8.379889e-03" style="stop-color:#6CBBCB"/>
	<stop  offset="1" style="stop-color:#00A7BC"/>
</radialGradient>
<ellipse class="st14" cx="40.9" cy="10.9" rx="5" ry="2.2"/>
<radialGradient id="SVGID_27_" cx="-2.1884" cy="-729.2569" r="6.3778" gradientTransform="matrix(0.7778 0 0 -0.3402 11.3721 -237.2232)" gradientUnits="userSpaceOnUse">
	<stop  offset="8.379889e-03" style="stop-color:#6CBBCB"/>
	<stop  offset="1" style="stop-color:#00A7BC"/>
</radialGradient>
<ellipse class="st15" cx="9.7" cy="10.9" rx="5" ry="2.2"/>
<linearGradient id="SVGID_28_" gradientUnits="userSpaceOnUse" x1="25.26" y1="54.8" x2="25.26" y2="42.04" gradientTransform="matrix(1 0 0 -1 0 58)">
	<stop  offset="9.500000e-02" style="stop-color:#A5DDE8"/>
	<stop  offset="0.26" style="stop-color:#9DD6E3"/>
	<stop  offset="0.5172" style="stop-color:#87C9D8"/>
	<stop  offset="0.757" style="stop-color:#6CBBCB"/>
	<stop  offset="1" style="stop-color:#00A7BC"/>
</linearGradient>
<circle class="st16" cx="25.3" cy="9.6" r="6.4"/>
<ellipse class="st17" cx="40.9" cy="10.9" rx="5" ry="2.2"/>
<ellipse class="st17" cx="9.7" cy="10.9" rx="5" ry="2.2"/>
</svg>
